<?xml version="1.0" encoding="utf-8"?>
<!-- Generator: Adobe Illustrator 19.0.1, SVG Export Plug-In . SVG Version: 6.00 Build 0)  -->
<svg version="1.1" id="Layer_1" xmlns="http://www.w3.org/2000/svg" xmlns:xlink="http://www.w3.org/1999/xlink" x="0px" y="0px"
	 viewBox="-233.9 346.4 54.9 65.9" style="enable-background:new -233.9 346.4 54.9 65.9;" xml:space="preserve">
<style type="text/css">
	.st0{fill:#FFFFFF;}
</style>
<g>
	<path class="st0" d="M-225.7,375.9c-2.5,3.4-4.4,7.9-4.4,14.1c0,6.2,1.9,10.6,4.4,14h-2.4c-2.2-2.9-4.5-7.3-4.5-14
		c0-6.8,2.4-11.2,4.5-14.1H-225.7z"/>
</g>
<g>
	<path class="st0" d="M-214.5,412.2c-0.1-1-0.5-2.1-2.1-2.1c-1.6,0-2,1-2.1,2.1l-2.3,0c0.2-2.2,1.6-3.6,4.5-3.6
		c2.8,0,4.2,1.5,4.4,3.6L-214.5,412.2z"/>
	<path class="st0" d="M-204.1,412.2c-0.1-1-0.5-2.1-2.1-2.1c-1.6,0-2,1-2.1,2.1l-2.3,0c0.2-2.2,1.6-3.6,4.5-3.6
		c2.8,0,4.2,1.5,4.4,3.6L-204.1,412.2z"/>
</g>
<g>
	<path class="st0" d="M-194,373c-0.8-1.1-1.8-3.6-1.8-5.4c0-0.2,0.1-0.3,0.3-0.4c1.4-0.2,2.9-0.4,4.3-0.9c2.2-0.8,3.8-2.1,3.8-5.4
		c0-4.5-3.7-9.8-8.6-12.3l0.4-1.9h5.1c1.4,0,2.8,0,3.7-0.1l0.3,1.8c-0.9,0.2-2.2,0.3-3.6,0.3h-2.2v0.1c4.7,3.2,7.5,8.2,7.5,12.5
		c0,3.9-2.2,6-4.9,6.9c-1.2,0.4-2.6,0.7-3.6,0.8c0.1,0.8,0.6,2.7,1,3.4L-194,373z"/>
</g>
<g>
	<path class="st0" d="M-226.4,372.5c0.4-0.7,1-2.6,1-3.4c-1.1-0.2-2.4-0.4-3.6-0.8c-2.7-0.9-4.9-2.9-4.9-6.9c0-4.3,2.8-9.3,7.5-12.5
		v-0.1h-2.2c-1.4,0-2.6-0.1-3.6-0.3l0.3-1.8c1,0.1,2.4,0.1,3.7,0.1h5.1l0.4,1.9c-4.9,2.5-8.6,7.7-8.6,12.3c0,3.3,1.6,4.6,3.8,5.4
		c1.4,0.5,2.9,0.7,4.3,0.9c0.2,0,0.3,0.2,0.3,0.4c0,1.8-1,4.3-1.8,5.4L-226.4,372.5z"/>
</g>
<g>
	<path class="st0" d="M-210.6,371l-3.3-4.9h2.4l2,3.3h0.1l2-3.3h2.3l-3.3,4.9H-210.6z"/>
</g>
<g>
	<path class="st0" d="M-202.6,377.8c-1.4,2-2.5,4.7-2.5,8.4c0,3.7,1.1,6.3,2.5,8.3h-1.8c-1.2-1.7-2.7-4.3-2.7-8.3
		c0-4,1.4-6.7,2.7-8.4H-202.6z"/>
	<path class="st0" d="M-185.6,392.1c-0.4-1.1-0.8-2.3-1.1-3.6h-0.2c-0.2,1.1-0.7,2.4-1.1,3.5l-3.4,9.7h-3.2l6.1-15.5
		c0.1-0.4,0.2-0.6,0.2-0.8c0-0.2-0.1-0.5-0.2-0.9c-1.1-2.9-2.3-5.3-4.4-5.3c-0.2,0-0.4,0-0.6,0l0.3-2.4c0.3-0.1,0.8-0.1,1.2-0.1
		c3.3,0,4.8,3.1,6.6,7.9l6.4,17h-3.2L-185.6,392.1z"/>
</g>
<g>
	<path class="st0" d="M-213.3,349c-0.5-0.4-1.9-1-3.3-1c-1.4,0-2,0.5-2,1.1c0,0.6,0.7,1.1,1.8,2l2,1.6c2,1.5,3.2,3.2,3.2,5.6
		c0,3.7-2.6,6.1-5.8,6.1c-3.1,0-5.8-2.2-5.8-6c0-3.1,2.1-5.1,4.5-6.2v-0.1l-0.6-0.4c-0.6-0.5-1.5-1.3-1.5-2.5c0-1.3,1.4-2.8,4.1-2.8
		c1.7,0,3.2,0.6,3.9,1.2L-213.3,349z M-217.4,353.2c-1.9,1-3.6,2.6-3.6,5.2c0,2.8,1.8,4.4,3.7,4.4c1.9,0,3.5-1.6,3.5-4.3
		c0-1.7-0.8-3.1-2.3-4.2L-217.4,353.2z"/>
</g>
<g>
	<path class="st0" d="M-206,347.6c0.7-0.6,2.2-1.2,3.9-1.2c2.8,0,4.1,1.5,4.1,2.8c0,1.1-0.9,2-1.5,2.5l-0.6,0.4v0.1
		c2.4,1.2,4.5,3.2,4.5,6.2c0,3.8-2.7,6-5.8,6c-3.2,0-5.8-2.4-5.8-6.1c0-2.4,1.2-4.1,3.2-5.6l2-1.6c1.1-0.9,1.8-1.4,1.8-2
		c0-0.6-0.7-1.1-2-1.1c-1.4,0-2.7,0.6-3.3,1L-206,347.6z M-202.5,354.2c-1.5,1.2-2.3,2.6-2.3,4.2c0,2.7,1.6,4.3,3.5,4.3
		c1.9,0,3.7-1.6,3.7-4.4c0-2.6-1.7-4.2-3.6-5.2L-202.5,354.2z"/>
</g>
</svg>
