<?xml version="1.0" encoding="utf-8"?>
<!-- Generator: Adobe Illustrator 19.0.1, SVG Export Plug-In . SVG Version: 6.00 Build 0)  -->
<svg version="1.1" id="Layer_1" xmlns="http://www.w3.org/2000/svg" xmlns:xlink="http://www.w3.org/1999/xlink" x="0px" y="0px"
	 viewBox="-193 364.1 223.8 65.9" style="enable-background:new -193 364.1 223.8 65.9;" xml:space="preserve">
<style type="text/css">
	.st0{fill:#FFFFFF;}
</style>
<g>
	<path class="st0" d="M-184.6,393.6c-2.5,3.4-4.4,7.9-4.4,14.1s1.9,10.6,4.4,14h-2.4c-2.2-2.9-4.5-7.3-4.5-14
		c0-6.8,2.4-11.2,4.5-14.1H-184.6z"/>
</g>
<g>
	<path class="st0" d="M-173.4,430c-0.1-1-0.5-2.1-2.1-2.1s-2,1-2.1,2.1h-2.3c0.2-2.2,1.6-3.6,4.5-3.6c2.8,0,4.2,1.5,4.4,3.6H-173.4z
		"/>
	<path class="st0" d="M-163,430c-0.1-1-0.5-2.1-2.1-2.1s-2,1-2.1,2.1h-2.3c0.2-2.2,1.6-3.6,4.5-3.6c2.8,0,4.2,1.5,4.4,3.6H-163z"/>
</g>
<g>
	<path class="st0" d="M-152.9,390.8c-0.8-1.1-1.8-3.6-1.8-5.4c0-0.2,0.1-0.3,0.3-0.4c1.4-0.2,2.9-0.4,4.3-0.9
		c2.2-0.8,3.8-2.1,3.8-5.4c0-4.5-3.7-9.8-8.6-12.3l0.4-1.9h5.1c1.4,0,2.8,0,3.7-0.1l0.3,1.8c-0.9,0.2-2.2,0.3-3.6,0.3h-2.2v0.1
		c4.7,3.2,7.5,8.2,7.5,12.5c0,3.9-2.2,6-4.9,6.9c-1.2,0.4-2.6,0.7-3.6,0.8c0.1,0.8,0.6,2.7,1,3.4L-152.9,390.8z"/>
</g>
<g>
	<path class="st0" d="M-185.3,390.3c0.4-0.7,1-2.6,1-3.4c-1.1-0.2-2.4-0.4-3.6-0.8c-2.7-0.9-4.9-2.9-4.9-6.9c0-4.3,2.8-9.3,7.5-12.5
		v-0.1h-2.2c-1.4,0-2.6-0.1-3.6-0.3l0.3-1.8c1,0.1,2.4,0.1,3.7,0.1h5.1l0.4,1.9c-4.9,2.5-8.6,7.7-8.6,12.3c0,3.3,1.6,4.6,3.8,5.4
		c1.4,0.5,2.9,0.7,4.3,0.9c0.2,0,0.3,0.2,0.3,0.4c0,1.8-1,4.3-1.8,5.4L-185.3,390.3z"/>
</g>
<g>
	<path class="st0" d="M-169.5,388.8l-3.3-4.9h2.4l2,3.3h0.1l2-3.3h2.3l-3.3,4.9H-169.5z"/>
</g>
<g>
	<path class="st0" d="M-161.5,395.5c-1.4,2-2.5,4.7-2.5,8.4c0,3.7,1.1,6.3,2.5,8.3h-1.8c-1.2-1.7-2.7-4.3-2.7-8.3s1.4-6.7,2.7-8.4
		H-161.5z"/>
	<path class="st0" d="M-144.5,409.9c-0.4-1.1-0.8-2.3-1.1-3.6h-0.2c-0.2,1.1-0.7,2.4-1.1,3.5l-3.4,9.7h-3.2l6.1-15.5
		c0.1-0.4,0.2-0.6,0.2-0.8c0-0.2-0.1-0.5-0.2-0.9c-1.1-2.9-2.3-5.3-4.4-5.3c-0.2,0-0.4,0-0.6,0l0.3-2.4c0.3-0.1,0.8-0.1,1.2-0.1
		c3.3,0,4.8,3.1,6.6,7.9l6.4,17h-3.2L-144.5,409.9z"/>
</g>
<g>
	<path class="st0" d="M-172.3,366.8c-0.5-0.4-1.9-1-3.3-1s-2,0.5-2,1.1s0.7,1.1,1.8,2l2,1.6c2,1.5,3.2,3.2,3.2,5.6
		c0,3.7-2.6,6.1-5.8,6.1c-3.1,0-5.8-2.2-5.8-6c0-3.1,2.1-5.1,4.5-6.2v-0.1l-0.6-0.4c-0.6-0.5-1.5-1.3-1.5-2.5c0-1.3,1.4-2.8,4.1-2.8
		c1.7,0,3.2,0.6,3.9,1.2L-172.3,366.8z M-176.3,371c-1.9,1-3.6,2.6-3.6,5.2c0,2.8,1.8,4.4,3.7,4.4c1.9,0,3.5-1.6,3.5-4.3
		c0-1.7-0.8-3.1-2.3-4.2L-176.3,371z"/>
</g>
<g>
	<path class="st0" d="M-164.9,365.4c0.7-0.6,2.2-1.2,3.9-1.2c2.8,0,4.1,1.5,4.1,2.8c0,1.1-0.9,2-1.5,2.5l-0.6,0.4v0.1
		c2.4,1.2,4.5,3.2,4.5,6.2c0,3.8-2.7,6-5.8,6c-3.2,0-5.8-2.4-5.8-6.1c0-2.4,1.2-4.1,3.2-5.6l2-1.6c1.1-0.9,1.8-1.4,1.8-2
		s-0.7-1.1-2-1.1c-1.4,0-2.7,0.6-3.3,1L-164.9,365.4z M-161.4,372c-1.5,1.2-2.3,2.6-2.3,4.2c0,2.7,1.6,4.3,3.5,4.3s3.7-1.6,3.7-4.4
		c0-2.6-1.7-4.2-3.6-5.2L-161.4,372z"/>
</g>
<g>
	<path class="st0" d="M-115.3,417.3H-128l-2.6,7h3.7c0.5,0,0.8,0.1,1,0.3c0.2,0.2,0.3,0.4,0.3,0.7c0,0.3-0.1,0.5-0.3,0.7
		s-0.5,0.3-1,0.3h-7.2c-0.5,0-0.8-0.1-1-0.3c-0.2-0.2-0.3-0.4-0.3-0.7c0-0.3,0.1-0.5,0.3-0.7s0.5-0.3,1-0.3h1.5l8.5-23h-5.7
		c-0.5,0-0.8-0.1-1-0.3c-0.2-0.2-0.3-0.4-0.3-0.7c0-0.3,0.1-0.5,0.3-0.7s0.5-0.3,1-0.3h9.7l9.4,24.9h1.5c0.5,0,0.8,0.1,1,0.3
		c0.2,0.2,0.3,0.4,0.3,0.7c0,0.3-0.1,0.5-0.3,0.7s-0.5,0.3-1,0.3h-7.2c-0.5,0-0.8-0.1-1-0.3c-0.2-0.2-0.3-0.4-0.3-0.7
		c0-0.3,0.1-0.5,0.3-0.7s0.5-0.3,1-0.3h3.7L-115.3,417.3z M-116.1,415.4l-5.3-14h-0.7l-5.2,14H-116.1z"/>
	<path class="st0" d="M-97.4,406.4h10.5c0.5,0,0.8,0.1,1,0.3c0.2,0.2,0.3,0.4,0.3,0.7c0,0.3-0.1,0.5-0.3,0.7s-0.5,0.3-1,0.3h-10.5
		v12.8c0,1.1,0.4,2.1,1.3,2.8c0.9,0.8,2.2,1.1,3.9,1.1c1.3,0,2.7-0.2,4.2-0.6s2.7-0.8,3.5-1.3c0.3-0.2,0.6-0.3,0.8-0.3
		s0.5,0.1,0.6,0.3c0.2,0.2,0.3,0.4,0.3,0.7c0,0.2-0.1,0.4-0.3,0.6c-0.5,0.5-1.7,1.1-3.6,1.6c-1.9,0.6-3.7,0.9-5.4,0.9
		c-2.3,0-4-0.5-5.4-1.6c-1.3-1.1-2-2.5-2-4.3v-12.8h-3.6c-0.5,0-0.8-0.1-1-0.3c-0.2-0.2-0.3-0.4-0.3-0.7c0-0.3,0.1-0.5,0.3-0.7
		s0.5-0.3,1-0.3h3.6v-5.7c0-0.5,0.1-0.8,0.3-1s0.4-0.3,0.7-0.3s0.5,0.1,0.7,0.3c0.2,0.2,0.3,0.5,0.3,1L-97.4,406.4L-97.4,406.4z"/>
	<path class="st0" d="M-71.6,397.5v11.9c1.2-1.3,2.4-2.3,3.5-2.8s2.4-0.8,3.8-0.8c1.5,0,2.8,0.3,3.8,0.8s1.9,1.3,2.6,2.4
		c0.7,1.1,1.1,2.2,1.1,3.5v12h2.2c0.5,0,0.8,0.1,1,0.3c0.2,0.2,0.3,0.4,0.3,0.7c0,0.3-0.1,0.5-0.3,0.7s-0.5,0.3-1,0.3h-6.3
		c-0.5,0-0.8-0.1-1-0.3c-0.2-0.2-0.3-0.4-0.3-0.7c0-0.3,0.1-0.5,0.3-0.7s0.5-0.3,1-0.3h2.2v-11.8c0-1.4-0.5-2.6-1.5-3.5
		s-2.4-1.4-4.2-1.4c-1.4,0-2.6,0.3-3.6,1c-0.7,0.5-1.9,1.6-3.6,3.5v12.2h2.2c0.5,0,0.8,0.1,1,0.3c0.2,0.2,0.3,0.4,0.3,0.7
		c0,0.3-0.1,0.5-0.3,0.7s-0.5,0.3-1,0.3h-6.3c-0.5,0-0.8-0.1-1-0.3c-0.2-0.2-0.3-0.4-0.3-0.7c0-0.3,0.1-0.5,0.3-0.7s0.5-0.3,1-0.3
		h2.2v-24.9h-2.6c-0.5,0-0.8-0.1-1-0.3c-0.2-0.2-0.3-0.4-0.3-0.7c0-0.3,0.1-0.5,0.3-0.7s0.5-0.3,1-0.3h4.5V397.5z"/>
	<path class="st0" d="M-26.6,416.8h-19.7c0.3,2.5,1.4,4.5,3.1,6c1.8,1.5,3.9,2.3,6.5,2.3c1.4,0,2.9-0.2,4.5-0.7s2.9-1.1,3.9-1.9
		c0.3-0.2,0.5-0.3,0.8-0.3c0.2,0,0.5,0.1,0.6,0.3c0.2,0.2,0.3,0.4,0.3,0.7c0,0.3-0.1,0.5-0.4,0.8c-0.7,0.8-2,1.5-3.9,2.1
		c-1.9,0.7-3.8,1-5.8,1c-3.3,0-6.1-1.1-8.3-3.2c-2.2-2.2-3.3-4.8-3.3-7.9c0-2.8,1-5.2,3.1-7.2s4.6-3,7.7-3c3.2,0,5.7,1,7.8,3.1
		C-27.6,410.9-26.6,413.5-26.6,416.8z M-28.6,414.8c-0.4-2.1-1.4-3.9-3-5.2c-1.6-1.3-3.6-2-5.8-2s-4.2,0.7-5.8,2
		c-1.6,1.3-2.6,3.1-3,5.2H-28.6z"/>
	<path class="st0" d="M-15.1,406.4v2.9c1.3-1.4,2.6-2.3,3.7-2.8s2.3-0.8,3.7-0.8c1.5,0,2.8,0.3,4,0.9c0.9,0.5,1.6,1.2,2.3,2.3
		c0.7,1.1,1,2.2,1,3.3v12.1h1.6c0.5,0,0.8,0.1,1,0.3c0.2,0.2,0.3,0.4,0.3,0.7c0,0.3-0.1,0.5-0.3,0.7c-0.2,0.2-0.5,0.3-1,0.3H-4
		c-0.5,0-0.8-0.1-1-0.3c-0.2-0.2-0.3-0.4-0.3-0.7c0-0.3,0.1-0.5,0.3-0.7c0.2-0.2,0.5-0.3,1-0.3h1.6v-11.8c0-1.4-0.5-2.5-1.5-3.5
		c-1-0.9-2.3-1.4-4-1.4c-1.3,0-2.4,0.3-3.3,0.8s-2.3,1.8-4,3.8v12.1h2.2c0.5,0,0.8,0.1,1,0.3c0.2,0.2,0.3,0.4,0.3,0.7
		c0,0.3-0.1,0.5-0.3,0.7c-0.2,0.2-0.5,0.3-1,0.3h-6.3c-0.5,0-0.8-0.1-1-0.3c-0.2-0.2-0.3-0.4-0.3-0.7c0-0.3,0.1-0.5,0.3-0.7
		c0.2-0.2,0.5-0.3,1-0.3h2.2v-16h-1.6c-0.5,0-0.8-0.1-1-0.3c-0.2-0.2-0.3-0.4-0.3-0.7c0-0.3,0.1-0.5,0.3-0.7c0.2-0.2,0.5-0.3,1-0.3
		h3.6V406.4z"/>
	<path class="st0" d="M24.9,426.3v-2.8c-2.8,2.4-5.8,3.5-9,3.5c-2.3,0-4.1-0.6-5.4-1.8s-2-2.6-2-4.3c0-1.9,0.9-3.5,2.6-4.9
		s4.2-2.1,7.5-2.1c0.9,0,1.9,0.1,2.9,0.2s2.2,0.3,3.4,0.5v-3.1c0-1.1-0.5-2-1.5-2.8s-2.4-1.2-4.4-1.2c-1.5,0-3.6,0.4-6.3,1.3
		c-0.5,0.2-0.8,0.2-0.9,0.2c-0.2,0-0.5-0.1-0.6-0.3c-0.2-0.2-0.3-0.4-0.3-0.7c0-0.3,0.1-0.5,0.2-0.6c0.2-0.2,1.1-0.5,2.6-0.9
		c2.4-0.6,4.2-1,5.4-1c2.4,0,4.3,0.6,5.7,1.8c1.4,1.2,2,2.6,2,4.1v12.8h2.6c0.5,0,0.8,0.1,1,0.3c0.2,0.2,0.3,0.4,0.3,0.7
		c0,0.3-0.1,0.5-0.3,0.7s-0.5,0.3-1,0.3L24.9,426.3L24.9,426.3z M24.9,416.7c-0.9-0.3-1.9-0.5-2.9-0.6s-2.1-0.2-3.2-0.2
		c-2.8,0-5,0.6-6.6,1.8c-1.2,0.9-1.8,2-1.8,3.2s0.5,2.1,1.4,2.9s2.2,1.2,4,1.2c1.7,0,3.2-0.3,4.6-1s2.9-1.7,4.4-3.2L24.9,416.7
		L24.9,416.7z"/>
</g>
</svg>
