<?xml version="1.0" encoding="utf-8"?>
<!-- Generator: Adobe Illustrator 19.0.1, SVG Export Plug-In . SVG Version: 6.00 Build 0)  -->
<svg version="1.1" id="Layer_1" xmlns="http://www.w3.org/2000/svg" xmlns:xlink="http://www.w3.org/1999/xlink" x="0px" y="0px"
	 viewBox="-193 364.1 223.8 65.9" style="enable-background:new -193 364.1 223.8 65.9;" xml:space="preserve">
<style type="text/css">
	.st0{fill:#FFFFFF;}
</style>
<g>
	<path class="st0" d="M-182.5,403.4c0-2.2,0.3-4.1,0.9-5.9c0.6-1.7,1.4-3.2,2.5-4.4c1.1-1.2,2.4-2.1,3.9-2.8c1.5-0.6,3.1-1,4.9-1
		c1.7,0,3.1,0.3,4.3,1c1.2,0.7,2.3,1.4,3.1,2.3l-1.9,2.2c-0.7-0.7-1.5-1.3-2.4-1.8c-0.9-0.5-1.9-0.7-3.1-0.7c-1.3,0-2.5,0.3-3.5,0.8
		c-1.1,0.5-2,1.2-2.7,2.2c-0.7,1-1.3,2.1-1.7,3.5c-0.4,1.4-0.6,2.9-0.6,4.6c0,1.7,0.2,3.3,0.6,4.6c0.4,1.4,1,2.5,1.7,3.5
		c0.7,1,1.6,1.7,2.7,2.2c1.1,0.5,2.2,0.8,3.5,0.8c1.2,0,2.3-0.3,3.3-0.8c1-0.5,1.9-1.3,2.8-2.2l2,2.1c-1.1,1.2-2.3,2.2-3.6,2.9
		c-1.4,0.7-2.9,1-4.6,1c-1.7,0-3.3-0.3-4.7-1c-1.4-0.6-2.7-1.6-3.8-2.8c-1.1-1.2-1.9-2.7-2.5-4.4
		C-182.2,407.6-182.5,405.6-182.5,403.4z"/>
	<path class="st0" d="M-159.9,407c0-1.6,0.3-3.1,0.8-4.4c0.5-1.3,1.2-2.4,2-3.3c0.8-0.9,1.8-1.6,2.9-2.1c1.1-0.5,2.3-0.7,3.4-0.7
		c1.2,0,2.3,0.2,3.3,0.7c0.9,0.5,1.9,1.1,2.8,1.9l-0.1-3.7v-7.7h3.4V417h-2.8l-0.3-2.7h-0.1c-0.8,0.9-1.8,1.6-3,2.2
		c-1.1,0.6-2.3,0.9-3.6,0.9c-1.3,0-2.5-0.2-3.6-0.7c-1.1-0.5-2-1.2-2.8-2.1c-0.8-0.9-1.4-2-1.8-3.3
		C-159.7,410.2-159.9,408.7-159.9,407z M-156.4,406.9c0,2.4,0.5,4.3,1.6,5.7c1,1.4,2.5,2,4.4,2c2,0,3.9-1,5.7-3v-10
		c-0.9-0.9-1.8-1.5-2.7-1.8c-0.9-0.4-1.7-0.5-2.6-0.5c-0.9,0-1.7,0.2-2.5,0.6c-0.8,0.4-1.4,0.9-2,1.6c-0.6,0.7-1,1.5-1.3,2.4
		C-156.2,404.7-156.4,405.8-156.4,406.9z"/>
</g>
<path class="st0" d="M-131,428h-61.9V366h61.9V428z M-189.8,424.8h55.7v-55.7h-55.7V424.8z"/>
<g>
	<path class="st0" d="M-103.9,402.8v-1.1c0-0.4,0.1-0.6,0.2-0.8c0.1-0.2,0.3-0.2,0.6-0.2c0.2,0,0.4,0.1,0.6,0.2
		c0.1,0.2,0.2,0.4,0.2,0.8v4.3c0,0.4-0.1,0.6-0.2,0.8c-0.1,0.2-0.3,0.2-0.6,0.2c-0.2,0-0.4-0.1-0.5-0.2c-0.1-0.1-0.2-0.4-0.2-0.7
		c-0.1-1-0.6-1.9-1.7-2.7c-1.4-1.1-3-1.6-4.8-1.6c-1.2,0-2.3,0.3-3.3,0.8c-0.8,0.4-1.4,0.8-1.9,1.4c-0.8,0.9-1.4,2-1.9,3.2
		c-0.3,0.9-0.5,1.8-0.5,2.9v2.7c0,2.3,0.8,4.3,2.5,6c1.7,1.7,3.6,2.5,5.8,2.5c1.3,0,2.5-0.3,3.5-0.9c1-0.6,2-1.4,3-2.6
		c0.2-0.3,0.4-0.4,0.7-0.4c0.2,0,0.4,0.1,0.5,0.2s0.2,0.3,0.2,0.5c0,0.3-0.3,0.7-0.8,1.3c-1,1.1-2.1,2-3.4,2.5
		c-1.2,0.6-2.5,0.8-3.8,0.8c-1.1,0-2.2-0.2-3.4-0.6c-0.9-0.3-1.6-0.7-2.2-1.2c-0.6-0.4-1.3-1.2-2.1-2.2c-0.8-1-1.4-2-1.7-2.9
		c-0.3-0.9-0.5-1.9-0.5-2.9v-3.1c0-1.5,0.4-3.1,1.2-4.6c0.8-1.6,1.9-2.8,3.3-3.6c1.4-0.8,2.9-1.3,4.6-1.3
		C-107.9,400.2-105.7,401.1-103.9,402.8z"/>
	<path class="st0" d="M-84.9,422v-2.2c-2.2,1.9-4.6,2.8-7.1,2.8c-1.8,0-3.3-0.5-4.3-1.4c-1-0.9-1.6-2.1-1.6-3.4c0-1.5,0.7-2.8,2-3.9
		c1.4-1.1,3.4-1.7,6-1.7c0.7,0,1.5,0,2.3,0.1c0.8,0.1,1.7,0.2,2.7,0.4v-2.5c0-0.8-0.4-1.6-1.2-2.2c-0.8-0.6-1.9-0.9-3.5-0.9
		c-1.2,0-2.9,0.3-5,1c-0.4,0.1-0.6,0.2-0.7,0.2c-0.2,0-0.4-0.1-0.5-0.2c-0.1-0.1-0.2-0.3-0.2-0.5c0-0.2,0.1-0.4,0.2-0.5
		c0.2-0.2,0.9-0.4,2.1-0.7c1.9-0.5,3.3-0.8,4.3-0.8c1.9,0,3.4,0.5,4.5,1.4c1.1,1,1.6,2,1.6,3.2v10.1h2c0.4,0,0.6,0.1,0.8,0.2
		c0.2,0.1,0.2,0.3,0.2,0.6c0,0.2-0.1,0.4-0.2,0.5c-0.2,0.1-0.4,0.2-0.8,0.2H-84.9z M-84.9,414.4c-0.7-0.2-1.5-0.4-2.3-0.5
		c-0.8-0.1-1.6-0.1-2.5-0.1c-2.2,0-4,0.5-5.2,1.4c-0.9,0.7-1.4,1.6-1.4,2.6c0,0.9,0.4,1.7,1.1,2.3s1.8,0.9,3.2,0.9
		c1.3,0,2.6-0.3,3.7-0.8c1.1-0.5,2.3-1.4,3.5-2.5V414.4z"/>
	<path class="st0" d="M-61.3,399.1v21.4h2c0.4,0,0.6,0.1,0.8,0.2c0.2,0.1,0.2,0.3,0.2,0.6c0,0.2-0.1,0.4-0.2,0.5
		c-0.2,0.1-0.4,0.2-0.8,0.2h-3.6v-3c-1.8,2.4-4,3.7-6.8,3.7c-1.4,0-2.7-0.4-4-1.1c-1.3-0.7-2.3-1.8-3-3.1c-0.7-1.4-1.1-2.8-1.1-4.2
		c0-1.5,0.4-2.9,1.1-4.2c0.7-1.4,1.7-2.4,3-3.1c1.3-0.7,2.6-1.1,4-1.1c2.7,0,4.9,1.2,6.8,3.7v-8.7h-2c-0.4,0-0.6-0.1-0.8-0.2
		c-0.2-0.1-0.2-0.3-0.2-0.6c0-0.2,0.1-0.4,0.2-0.5c0.2-0.1,0.4-0.2,0.8-0.2H-61.3z M-62.8,414.2c0-1.9-0.7-3.6-2-4.9
		c-1.3-1.3-2.9-2-4.7-2c-1.8,0-3.4,0.7-4.7,2c-1.3,1.3-2,3-2,4.9c0,1.9,0.7,3.6,2,4.9c1.3,1.3,2.9,2,4.7,2c1.8,0,3.4-0.7,4.7-2
		C-63.5,417.8-62.8,416.1-62.8,414.2z"/>
	<path class="st0" d="M-51.5,406.2v1.6c1.3-1.4,2.6-2.1,3.9-2.1c0.8,0,1.5,0.2,2.1,0.6c0.6,0.4,1.1,1.1,1.5,1.9
		c0.7-0.9,1.4-1.5,2.1-1.9s1.4-0.6,2.1-0.6c1.1,0,2,0.4,2.6,1.1c0.9,0.9,1.3,1.9,1.3,3v10.7h1.3c0.4,0,0.6,0.1,0.8,0.2
		c0.2,0.1,0.2,0.3,0.2,0.6c0,0.2-0.1,0.4-0.2,0.5c-0.2,0.1-0.4,0.2-0.8,0.2h-2.8v-12.1c0-0.8-0.2-1.4-0.7-1.9
		c-0.5-0.5-1-0.8-1.6-0.8c-0.6,0-1.1,0.2-1.8,0.6c-0.6,0.4-1.3,1.2-2.1,2.5v10.2h1.3c0.4,0,0.6,0.1,0.8,0.2c0.2,0.1,0.2,0.3,0.2,0.6
		c0,0.2-0.1,0.4-0.2,0.5c-0.2,0.1-0.4,0.2-0.8,0.2h-2.8v-12c0-0.8-0.2-1.5-0.7-2c-0.5-0.5-1-0.8-1.6-0.8c-0.5,0-1.1,0.2-1.6,0.5
		c-0.7,0.5-1.5,1.4-2.3,2.6v10.2h1.3c0.4,0,0.6,0.1,0.8,0.2c0.2,0.1,0.2,0.3,0.2,0.6c0,0.2-0.1,0.4-0.2,0.5
		c-0.2,0.1-0.4,0.2-0.8,0.2h-4.1c-0.4,0-0.6-0.1-0.8-0.2c-0.2-0.1-0.2-0.3-0.2-0.5c0-0.2,0.1-0.4,0.2-0.6c0.2-0.1,0.4-0.2,0.8-0.2
		h1.3v-12.7h-1.3c-0.4,0-0.6-0.1-0.8-0.2c-0.2-0.1-0.2-0.3-0.2-0.6c0-0.2,0.1-0.4,0.2-0.5c0.2-0.1,0.4-0.2,0.8-0.2H-51.5z"/>
	<path class="st0" d="M-21.2,406.2v14.3h6c0.4,0,0.6,0.1,0.8,0.2c0.2,0.1,0.2,0.3,0.2,0.6c0,0.2-0.1,0.4-0.2,0.5
		c-0.2,0.1-0.4,0.2-0.8,0.2h-13.6c-0.4,0-0.6-0.1-0.8-0.2c-0.2-0.1-0.2-0.3-0.2-0.5c0-0.2,0.1-0.4,0.2-0.6c0.2-0.1,0.4-0.2,0.8-0.2
		h6v-12.7h-4.5c-0.4,0-0.6-0.1-0.8-0.2c-0.2-0.1-0.2-0.3-0.2-0.5c0-0.2,0.1-0.4,0.2-0.6c0.2-0.1,0.4-0.2,0.8-0.2H-21.2z
		 M-21.3,398.4v4h-2.3v-4H-21.3z"/>
	<path class="st0" d="M2.7,422v-2.2c-2.1,1.9-4.4,2.8-6.8,2.8c-1.5,0-2.6-0.4-3.4-1.2c-1-1.1-1.5-2.3-1.5-3.7v-9.9h-2.1
		c-0.4,0-0.6-0.1-0.8-0.2c-0.2-0.1-0.2-0.3-0.2-0.6c0-0.2,0.1-0.4,0.2-0.5c0.2-0.1,0.4-0.2,0.8-0.2h3.6v11.4c0,1,0.3,1.8,0.9,2.5
		c0.6,0.6,1.4,1,2.4,1c2.5,0,4.8-1.1,6.9-3.4v-9.9h-2.8c-0.4,0-0.6-0.1-0.8-0.2c-0.2-0.1-0.2-0.3-0.2-0.6c0-0.2,0.1-0.4,0.2-0.5
		c0.2-0.1,0.4-0.2,0.8-0.2h4.4v14.3h1.3c0.4,0,0.6,0.1,0.8,0.2c0.2,0.1,0.2,0.3,0.2,0.6c0,0.2-0.1,0.4-0.2,0.5
		C6.1,422,5.8,422,5.5,422H2.7z"/>
	<path class="st0" d="M12.9,406.2v1.6c1.3-1.4,2.6-2.1,3.9-2.1c0.8,0,1.5,0.2,2.1,0.6s1.1,1.1,1.5,1.9c0.7-0.9,1.4-1.5,2.1-1.9
		c0.7-0.4,1.4-0.6,2.1-0.6c1.1,0,2,0.4,2.6,1.1c0.9,0.9,1.3,1.9,1.3,3v10.7h1.3c0.4,0,0.6,0.1,0.8,0.2c0.2,0.1,0.2,0.3,0.2,0.6
		c0,0.2-0.1,0.4-0.2,0.5c-0.2,0.1-0.4,0.2-0.8,0.2h-2.8v-12.1c0-0.8-0.2-1.4-0.7-1.9c-0.5-0.5-1-0.8-1.6-0.8c-0.6,0-1.1,0.2-1.8,0.6
		c-0.6,0.4-1.3,1.2-2.1,2.5v10.2H22c0.4,0,0.6,0.1,0.8,0.2c0.2,0.1,0.2,0.3,0.2,0.6c0,0.2-0.1,0.4-0.2,0.5c-0.2,0.1-0.4,0.2-0.8,0.2
		h-2.8v-12c0-0.8-0.2-1.5-0.7-2c-0.5-0.5-1-0.8-1.6-0.8c-0.5,0-1.1,0.2-1.6,0.5c-0.7,0.5-1.5,1.4-2.3,2.6v10.2h1.3
		c0.4,0,0.6,0.1,0.8,0.2c0.2,0.1,0.2,0.3,0.2,0.6c0,0.2-0.1,0.4-0.2,0.5c-0.2,0.1-0.4,0.2-0.8,0.2H10c-0.4,0-0.6-0.1-0.8-0.2
		c-0.2-0.1-0.2-0.3-0.2-0.5c0-0.2,0.1-0.4,0.2-0.6c0.2-0.1,0.4-0.2,0.8-0.2h1.3v-12.7H10c-0.4,0-0.6-0.1-0.8-0.2
		C9.1,407.4,9,407.2,9,407c0-0.2,0.1-0.4,0.2-0.5c0.2-0.1,0.4-0.2,0.8-0.2H12.9z"/>
</g>
<g>
	<path class="st0" d="M-183.4,379.7h-3.7l-0.1-1.1l4-6h1.1v6h1.5v1.2h-1.5v1.4h0.9v1.2h-3.2v-1.2h1V379.7z M-183.4,378.5v-3.8
		l-2.5,3.8H-183.4z"/>
	<path class="st0" d="M-177.8,377.2c-0.9-0.5-1.4-1.3-1.4-2.2c0-0.8,0.3-1.4,0.9-1.9c0.6-0.4,1.3-0.7,2.1-0.7c1,0,1.7,0.2,2.3,0.7
		c0.6,0.5,0.8,1.1,0.8,1.8c0,0.9-0.5,1.7-1.4,2.2c1.1,0.4,1.7,1.2,1.7,2.4c0,0.8-0.3,1.5-0.9,2c-0.6,0.5-1.4,0.8-2.4,0.8
		c-1.1,0-2-0.3-2.6-0.8c-0.6-0.5-0.9-1.2-0.9-2C-179.5,378.5-178.9,377.7-177.8,377.2z M-178.1,379.5c0,0.5,0.2,0.9,0.5,1.2
		c0.4,0.3,0.8,0.5,1.4,0.5c0.6,0,1-0.2,1.4-0.5s0.6-0.7,0.6-1.3c0-0.5-0.2-0.9-0.5-1.3c-0.3-0.3-0.8-0.5-1.5-0.5
		c-0.6,0-1,0.2-1.4,0.5C-177.9,378.6-178.1,379-178.1,379.5z M-177.9,375.1c0,0.5,0.2,0.9,0.5,1.2c0.3,0.3,0.8,0.4,1.3,0.4
		c0.5,0,0.9-0.1,1.2-0.4c0.3-0.3,0.5-0.6,0.5-1.2c0-1-0.6-1.5-1.8-1.5c-0.5,0-0.9,0.1-1.3,0.4C-177.8,374.3-177.9,374.6-177.9,375.1
		z"/>
</g>
</svg>
