<?xml version="1.0" encoding="utf-8"?>
<!-- Generator: Adobe Illustrator 19.0.1, SVG Export Plug-In . SVG Version: 6.00 Build 0)  -->
<svg version="1.1" id="Layer_1" xmlns="http://www.w3.org/2000/svg" xmlns:xlink="http://www.w3.org/1999/xlink" x="0px" y="0px"
	 viewBox="0 0 162.881 77.973" enable-background="new 0 0 162.881 77.973" xml:space="preserve">
<g>
	<path fill="#FFFFFF" d="M2.287,18.329c2.63-2.301,5.232-4.604,8.163-6.527c3.073-2.016,6.384-3.67,9.843-4.913
		c1.093-0.393,2.335-0.738,3.38-0.23c1.089,0.529,1.593,1.865,1.502,3.072c-0.091,1.207-0.658,2.321-1.225,3.391
		c-3.039,5.737-6.395,11.313-9.132,17.2s-5.766,16.145-4.704,18.127c0.937,0.185,7.357-9.583,10.73-15.058
		c3.505-5.688,7.318-11.187,11.417-16.463c4.349-5.599,9.083-11.005,14.881-15.085c1.539-1.083,3.345-2.11,5.198-1.781
		c2.04,0.363,3.547,2.586,3.128,4.616c-0.56,2.715-3.605,3.957-6.058,5.249c-4.484,2.361-8.02,6.16-11.337,9.992
		c-7.63,8.814-14.605,18.192-20.892,28.009c-1.436,2.242-3.25,4.762-5.91,4.886c-1.93,0.09-3.725-1.232-4.656-2.925
		s-1.129-3.692-1.084-5.624c0.27-11.611,8.4-21.502,11.232-32.765c-4.795,1.717-8.931,5.208-11.427,9.647
		c-0.537,0.954-1.072,2.02-2.068,2.473c-0.826,0.376-1.871,0.206-2.536-0.412c-0.665-0.618-0.911-1.647-0.597-2.499
		c0.268-0.727,0.874-1.267,1.458-1.775C1.825,18.733,2.056,18.531,2.287,18.329z"/>
	<path fill="#FFFFFF" d="M129.277,39.844c0.145-1.009,0.14-2.038-0.047-3.072c-0.23-1.271-0.722-2.478-1.21-3.674
		c-0.455-1.113-0.934-2.263-1.809-3.089c-1.469-1.387-3.717-1.549-5.718-1.265c-9.695,1.376-16.218,10.697-25.236,14.513
		c2.489-2.434,4.06-5.786,4.339-9.256c0.109-1.354-0.012-2.829-0.882-3.872c-1.482-1.777-4.302-1.454-6.453-0.602
		c-4.532,1.794-8.253,5.129-11.869,8.398c-0.232-1.801,0.62-3.549,0.882-5.346c0.262-1.797-0.483-4.083-2.284-4.316
		c-1.571-0.203-2.791,1.251-3.828,2.448c-5.039,5.817-12.94,8.615-17.784,14.595c-0.596-2.527-0.158-5.283,1.194-7.5
		c0.682-1.119,1.588-2.113,2.072-3.331c0.483-1.218,0.41-2.808-0.631-3.604c-0.888-0.68-2.202-0.542-3.154,0.045
		c-0.952,0.587-1.618,1.533-2.224,2.473c0.259-1.709-0.913-3.518-2.579-3.979c-1.161-0.321-2.398-0.039-3.55,0.315
		c-6.498,1.998-11.847,6.219-15.709,11.757c-1.338,1.919-2.324,4.22-2.075,6.546c0.25,2.326,2.035,4.584,4.367,4.774
		c1.882,0.154,3.603-0.981,5.131-2.089c4.173-3.025,8.211-6.235,12.101-9.617c-0.26,1.602-0.52,3.247-0.186,4.835
		c0.334,1.588,1.399,3.129,2.968,3.543c2.045,0.54,4.03-0.919,5.644-2.286c4.689-3.969,9.378-7.938,14.067-11.907
		c-1.171,7.015-3.975,13.752-8.128,19.526c-2.183,3.034-4.736,5.814-6.608,9.05s-3.028,7.11-2.087,10.728
		c0.355,1.365,1.127,2.767,2.458,3.233c1.24,0.433,2.655-0.088,3.622-0.977c0.967-0.889,1.575-2.092,2.15-3.274
		c3.813-7.847,7.028-15.967,10.24-24.079c0.39,1.455,1.784,2.478,3.253,2.813c1.469,0.336,3.006,0.096,4.473-0.244
		c8.85-2.055,16.408-7.624,23.688-13.061c-1.053,3.642-2.022,7.87,0.157,10.973c1.595,2.272,4.594,3.274,7.357,2.997
		c2.762-0.277,5.306-1.66,7.503-3.356C126.035,47.183,128.728,43.657,129.277,39.844z M51.821,37.323
		c-4.058,4.397-8.918,8.062-14.324,10.621c-0.56,0.265-1.3,0.492-1.736,0.051c-0.276-0.28-0.298-0.72-0.253-1.111
		c0.189-1.636,1.211-3.048,2.291-4.292c3.953-4.553,9.188-8.243,15.522-6.972C52.834,36.199,52.334,36.767,51.821,37.323z
		 M67.338,58.825c-0.14,0.445-0.292,0.886-0.45,1.324c-1.55,4.307-3.646,8.417-6.221,12.201c-0.186-2.548,0.614-5.053,1.404-7.483
		c0.241-0.741,1.113-2.571,1.554-3.213c0.744-1.085,2.768-4.45,4.378-5.823C67.892,56.85,67.645,57.846,67.338,58.825z
		 M94.261,35.323c-0.021,0.08-0.046,0.159-0.071,0.236c-0.329,0.993-0.877,1.899-1.46,2.768c-1.104,1.647-2.348,3.201-3.714,4.638
		c-1.073,1.129-2.262,2.211-3.719,2.761c-0.164,0.062-0.348,0.117-0.513,0.057c-0.155-0.057-0.256-0.201-0.369-0.321
		c-0.498-0.527-1.299-0.623-2.023-0.582c-1.726,0.098-3.412,0.808-4.688,1.974c0.256-0.234,0.359-1.687,0.515-2.089
		c0.291-0.75,0.688-1.458,1.177-2.096c0.941-1.227,2.173-2.369,3.326-3.405c2.468-2.217,5.282-4.077,8.361-5.315
		c2.167-0.871,2.947-0.258,3.154,0.184C94.409,34.502,94.368,34.925,94.261,35.323z M123.764,37.83
		c0.244,0.278,0.482,0.558,0.63,0.894c0.334,0.758,0.142,1.643-0.157,2.416c-0.653,1.692-1.773,3.161-2.961,4.531
		c-1.314,1.515-2.754,2.962-4.5,3.948c-0.783,0.442-1.653,0.793-2.552,0.758s-1.822-0.534-2.144-1.373
		c-0.318-0.828-0.314-1.525-0.363-2.41c-0.026-0.478,0.383-2.619,0.581-3.07c0.854-1.939,1.945-3.916,3.4-5.467
		c1.237-1.319,2.538-3.014,4.423-3.361c0.59-0.109,1.21-0.072,1.774-0.276c1.007-0.363,1.792-1.463,2.854-1.328
		c-0.242,0.726-1.043,1.096-1.495,1.714c-0.434,0.593-0.509,1.428-0.187,2.088C123.239,37.243,123.505,37.535,123.764,37.83z"/>
	<path fill="#FFFFFF" d="M139.679,32.476c1.346-1.032,2.669-2.093,3.947-3.209c0.87-0.76,1.744-1.561,2.821-1.978
		c1.077-0.417,2.427-0.359,3.239,0.462c0.767,0.775,0.854,1.967,1.166,3.012c0.475,1.592,1.566,3.084,1.381,4.736
		c-0.167,1.487-1.321,2.636-2.325,3.746c-2.084,2.304-3.776,4.963-4.98,7.828c-0.079,0.188-0.157,0.391-0.11,0.589
		c0.082,0.346,0.492,0.496,0.846,0.529c0.948,0.088,1.883-0.238,2.765-0.596c4.728-1.922,9.004-4.944,12.393-8.759
		c0.236-0.266,0.477-0.542,0.797-0.696s0.745-0.152,0.992,0.104c0.171,0.177,0.224,0.436,0.249,0.681
		c0.146,1.469-0.481,2.93-1.401,4.084c-0.921,1.153-2.119,2.048-3.304,2.928c-2.013,1.497-4.027,2.994-6.04,4.492
		c-1.567,1.165-3.23,2.37-5.168,2.605c-2.153,0.261-4.412-0.846-5.525-2.707c-1.449-2.422-0.887-5.568,0.325-8.117
		c1.212-2.548,3.01-4.797,4.094-7.402c0.225-0.54,0.307-1.347-0.246-1.535c-0.324-0.11-0.664,0.092-0.947,0.284
		c-3.901,2.657-7.803,5.313-11.704,7.97c-0.315,0.214-0.64,0.433-1.014,0.507c-0.373,0.074-0.81-0.034-1.013-0.356
		c-0.101-0.161-0.134-0.356-0.149-0.546c-0.234-2.963,3.315-4.516,5.336-5.993C137.303,34.262,138.5,33.38,139.679,32.476z"/>
</g>
</svg>
